M48
; DRILL file KiCad 10.0.6 date 2026-09-06T12:07:46
; FORMAT={-:-/ absolute / metric / decimal}
; #@! TF.CreationDate,2026-09-06T12:07:46-04:00
; #@! TF.GenerationSoftware,Kicad,Pcbnew,10.0.6
; #@! TF.FileFunction,Plated,1,2,PTH
FMAT,2
METRIC
; #@! TA.AperFunction,Plated,PTH,ViaDrill
T1C0.400
; #@! TA.AperFunction,Plated,PTH,ComponentDrill
T2C0.800
; #@! TA.AperFunction,Plated,PTH,ComponentDrill
T3C1.000
; #@! TA.AperFunction,Plated,PTH,ComponentDrill
T4C1.100
; #@! TA.AperFunction,Plated,PTH,ViaDrill
T5C1.300
; #@! TA.AperFunction,Plated,PTH,ComponentDrill
T6C1.300
; #@! TA.AperFunction,Plated,PTH,ComponentDrill
T7C1.520
; #@! TA.AperFunction,Plated,PTH,ViaDrill
T8C3.050
%
G90
G05
T1
X147.955Y-114.3
X151.765Y-106.68
X151.765Y-113.03
X153.035Y-70.485
X155.575Y-93.345
X157.5Y-106.5
X158.115Y-94.615
X162.56Y-70.485
X162.56Y-71.755
X162.56Y-88.265
X163.83Y-121.285
X165.051Y-89.079
X165.065Y-94.65
X165.065Y-106.5
X165.1Y-86.995
X167.64Y-82.55
X173.355Y-88.9
X173.355Y-101.6
X173.99Y-71.755
X175.26Y-92.71
X177.8Y-101.6
T2
X144.78Y-73.66
X144.78Y-76.2
X144.78Y-78.74
X144.78Y-81.28
X144.78Y-83.82
X144.78Y-86.36
X144.78Y-88.9
X144.78Y-91.44
X144.78Y-93.98
X144.78Y-96.52
X144.78Y-99.06
X144.78Y-101.6
X144.78Y-104.14
X144.78Y-106.68
X144.78Y-109.22
X144.78Y-111.76
X144.78Y-114.3
X144.78Y-116.84
X144.78Y-119.38
X170.176Y-116.837
X170.176Y-119.377
X170.18Y-73.66
X170.18Y-76.2
X170.18Y-78.74
X170.18Y-81.28
X170.18Y-83.82
X170.18Y-86.36
X170.18Y-88.9
X170.18Y-91.44
X170.18Y-93.98
X170.18Y-96.52
X170.18Y-99.06
X170.18Y-101.6
X170.18Y-104.14
X170.18Y-106.68
X170.18Y-109.22
X170.18Y-111.76
X170.18Y-114.3
T3
X175.26Y-96.52
X175.26Y-99.06
X175.26Y-101.6
X175.26Y-104.14
T4
X153.035Y-90.32
X154.94Y-116.99
X155.575Y-90.32
X157.48Y-116.99
X158.115Y-90.32
X160.02Y-116.99
T5
X176.5Y-115.0
X177.0Y-110.0
T6
X182.245Y-92.075
X182.245Y-114.575
T7
X176.5Y-119.5
X176.5Y-124.58
X177.8Y-71.755
X177.8Y-76.835
X177.8Y-81.915
X177.8Y-86.995
T8
X144.78Y-69.85
X144.78Y-124.85
X185.42Y-69.85
X185.42Y-124.85
M30
