%TF.GenerationSoftware,KiCad,Pcbnew,10.0.6*%
%TF.CreationDate,2026-09-06T12:08:35-04:00*%
%TF.ProjectId,ESP32Board,45535033-3242-46f6-9172-642e6b696361,rev?*%
%TF.SameCoordinates,Original*%
%TF.FileFunction,Legend,Bot*%
%TF.FilePolarity,Positive*%
%FSLAX46Y46*%
G04 Gerber Fmt 4.6, Leading zero omitted, Abs format (unit mm)*
G04 Created by KiCad (PCBNEW 10.0.6) date 2026-09-06 12:08:35*
%MOMM*%
%LPD*%
G01*
G04 APERTURE LIST*
%ADD10C,0.150000*%
%ADD11C,0.120000*%
%ADD12C,0.152400*%
G04 APERTURE END LIST*
D10*
X164266666Y-94689819D02*
X164599999Y-94213628D01*
X164838094Y-94689819D02*
X164838094Y-93689819D01*
X164838094Y-93689819D02*
X164457142Y-93689819D01*
X164457142Y-93689819D02*
X164361904Y-93737438D01*
X164361904Y-93737438D02*
X164314285Y-93785057D01*
X164314285Y-93785057D02*
X164266666Y-93880295D01*
X164266666Y-93880295D02*
X164266666Y-94023152D01*
X164266666Y-94023152D02*
X164314285Y-94118390D01*
X164314285Y-94118390D02*
X164361904Y-94166009D01*
X164361904Y-94166009D02*
X164457142Y-94213628D01*
X164457142Y-94213628D02*
X164838094Y-94213628D01*
X163695237Y-94118390D02*
X163790475Y-94070771D01*
X163790475Y-94070771D02*
X163838094Y-94023152D01*
X163838094Y-94023152D02*
X163885713Y-93927914D01*
X163885713Y-93927914D02*
X163885713Y-93880295D01*
X163885713Y-93880295D02*
X163838094Y-93785057D01*
X163838094Y-93785057D02*
X163790475Y-93737438D01*
X163790475Y-93737438D02*
X163695237Y-93689819D01*
X163695237Y-93689819D02*
X163504761Y-93689819D01*
X163504761Y-93689819D02*
X163409523Y-93737438D01*
X163409523Y-93737438D02*
X163361904Y-93785057D01*
X163361904Y-93785057D02*
X163314285Y-93880295D01*
X163314285Y-93880295D02*
X163314285Y-93927914D01*
X163314285Y-93927914D02*
X163361904Y-94023152D01*
X163361904Y-94023152D02*
X163409523Y-94070771D01*
X163409523Y-94070771D02*
X163504761Y-94118390D01*
X163504761Y-94118390D02*
X163695237Y-94118390D01*
X163695237Y-94118390D02*
X163790475Y-94166009D01*
X163790475Y-94166009D02*
X163838094Y-94213628D01*
X163838094Y-94213628D02*
X163885713Y-94308866D01*
X163885713Y-94308866D02*
X163885713Y-94499342D01*
X163885713Y-94499342D02*
X163838094Y-94594580D01*
X163838094Y-94594580D02*
X163790475Y-94642200D01*
X163790475Y-94642200D02*
X163695237Y-94689819D01*
X163695237Y-94689819D02*
X163504761Y-94689819D01*
X163504761Y-94689819D02*
X163409523Y-94642200D01*
X163409523Y-94642200D02*
X163361904Y-94594580D01*
X163361904Y-94594580D02*
X163314285Y-94499342D01*
X163314285Y-94499342D02*
X163314285Y-94308866D01*
X163314285Y-94308866D02*
X163361904Y-94213628D01*
X163361904Y-94213628D02*
X163409523Y-94166009D01*
X163409523Y-94166009D02*
X163504761Y-94118390D01*
X166444819Y-102433333D02*
X165968628Y-102100000D01*
X166444819Y-101861905D02*
X165444819Y-101861905D01*
X165444819Y-101861905D02*
X165444819Y-102242857D01*
X165444819Y-102242857D02*
X165492438Y-102338095D01*
X165492438Y-102338095D02*
X165540057Y-102385714D01*
X165540057Y-102385714D02*
X165635295Y-102433333D01*
X165635295Y-102433333D02*
X165778152Y-102433333D01*
X165778152Y-102433333D02*
X165873390Y-102385714D01*
X165873390Y-102385714D02*
X165921009Y-102338095D01*
X165921009Y-102338095D02*
X165968628Y-102242857D01*
X165968628Y-102242857D02*
X165968628Y-101861905D01*
X165444819Y-102766667D02*
X165444819Y-103433333D01*
X165444819Y-103433333D02*
X166444819Y-103004762D01*
X162919580Y-77506533D02*
X162967200Y-77458914D01*
X162967200Y-77458914D02*
X163014819Y-77316057D01*
X163014819Y-77316057D02*
X163014819Y-77220819D01*
X163014819Y-77220819D02*
X162967200Y-77077962D01*
X162967200Y-77077962D02*
X162871961Y-76982724D01*
X162871961Y-76982724D02*
X162776723Y-76935105D01*
X162776723Y-76935105D02*
X162586247Y-76887486D01*
X162586247Y-76887486D02*
X162443390Y-76887486D01*
X162443390Y-76887486D02*
X162252914Y-76935105D01*
X162252914Y-76935105D02*
X162157676Y-76982724D01*
X162157676Y-76982724D02*
X162062438Y-77077962D01*
X162062438Y-77077962D02*
X162014819Y-77220819D01*
X162014819Y-77220819D02*
X162014819Y-77316057D01*
X162014819Y-77316057D02*
X162062438Y-77458914D01*
X162062438Y-77458914D02*
X162110057Y-77506533D01*
X162014819Y-77839867D02*
X162014819Y-78458914D01*
X162014819Y-78458914D02*
X162395771Y-78125581D01*
X162395771Y-78125581D02*
X162395771Y-78268438D01*
X162395771Y-78268438D02*
X162443390Y-78363676D01*
X162443390Y-78363676D02*
X162491009Y-78411295D01*
X162491009Y-78411295D02*
X162586247Y-78458914D01*
X162586247Y-78458914D02*
X162824342Y-78458914D01*
X162824342Y-78458914D02*
X162919580Y-78411295D01*
X162919580Y-78411295D02*
X162967200Y-78363676D01*
X162967200Y-78363676D02*
X163014819Y-78268438D01*
X163014819Y-78268438D02*
X163014819Y-77982724D01*
X163014819Y-77982724D02*
X162967200Y-77887486D01*
X162967200Y-77887486D02*
X162919580Y-77839867D01*
X155670238Y-70460057D02*
X155765476Y-70412438D01*
X155765476Y-70412438D02*
X155860714Y-70317200D01*
X155860714Y-70317200D02*
X156003571Y-70174342D01*
X156003571Y-70174342D02*
X156098809Y-70126723D01*
X156098809Y-70126723D02*
X156194047Y-70126723D01*
X156146428Y-70364819D02*
X156241666Y-70317200D01*
X156241666Y-70317200D02*
X156336904Y-70221961D01*
X156336904Y-70221961D02*
X156384523Y-70031485D01*
X156384523Y-70031485D02*
X156384523Y-69698152D01*
X156384523Y-69698152D02*
X156336904Y-69507676D01*
X156336904Y-69507676D02*
X156241666Y-69412438D01*
X156241666Y-69412438D02*
X156146428Y-69364819D01*
X156146428Y-69364819D02*
X155955952Y-69364819D01*
X155955952Y-69364819D02*
X155860714Y-69412438D01*
X155860714Y-69412438D02*
X155765476Y-69507676D01*
X155765476Y-69507676D02*
X155717857Y-69698152D01*
X155717857Y-69698152D02*
X155717857Y-70031485D01*
X155717857Y-70031485D02*
X155765476Y-70221961D01*
X155765476Y-70221961D02*
X155860714Y-70317200D01*
X155860714Y-70317200D02*
X155955952Y-70364819D01*
X155955952Y-70364819D02*
X156146428Y-70364819D01*
X154765476Y-70364819D02*
X155336904Y-70364819D01*
X155051190Y-70364819D02*
X155051190Y-69364819D01*
X155051190Y-69364819D02*
X155146428Y-69507676D01*
X155146428Y-69507676D02*
X155241666Y-69602914D01*
X155241666Y-69602914D02*
X155336904Y-69650533D01*
X157575238Y-97130057D02*
X157670476Y-97082438D01*
X157670476Y-97082438D02*
X157765714Y-96987200D01*
X157765714Y-96987200D02*
X157908571Y-96844342D01*
X157908571Y-96844342D02*
X158003809Y-96796723D01*
X158003809Y-96796723D02*
X158099047Y-96796723D01*
X158051428Y-97034819D02*
X158146666Y-96987200D01*
X158146666Y-96987200D02*
X158241904Y-96891961D01*
X158241904Y-96891961D02*
X158289523Y-96701485D01*
X158289523Y-96701485D02*
X158289523Y-96368152D01*
X158289523Y-96368152D02*
X158241904Y-96177676D01*
X158241904Y-96177676D02*
X158146666Y-96082438D01*
X158146666Y-96082438D02*
X158051428Y-96034819D01*
X158051428Y-96034819D02*
X157860952Y-96034819D01*
X157860952Y-96034819D02*
X157765714Y-96082438D01*
X157765714Y-96082438D02*
X157670476Y-96177676D01*
X157670476Y-96177676D02*
X157622857Y-96368152D01*
X157622857Y-96368152D02*
X157622857Y-96701485D01*
X157622857Y-96701485D02*
X157670476Y-96891961D01*
X157670476Y-96891961D02*
X157765714Y-96987200D01*
X157765714Y-96987200D02*
X157860952Y-97034819D01*
X157860952Y-97034819D02*
X158051428Y-97034819D01*
X157241904Y-96130057D02*
X157194285Y-96082438D01*
X157194285Y-96082438D02*
X157099047Y-96034819D01*
X157099047Y-96034819D02*
X156860952Y-96034819D01*
X156860952Y-96034819D02*
X156765714Y-96082438D01*
X156765714Y-96082438D02*
X156718095Y-96130057D01*
X156718095Y-96130057D02*
X156670476Y-96225295D01*
X156670476Y-96225295D02*
X156670476Y-96320533D01*
X156670476Y-96320533D02*
X156718095Y-96463390D01*
X156718095Y-96463390D02*
X157289523Y-97034819D01*
X157289523Y-97034819D02*
X156670476Y-97034819D01*
%TO.C,R8*%
D11*
X164327064Y-95150000D02*
X163872936Y-95150000D01*
X164327064Y-96620000D02*
X163872936Y-96620000D01*
%TO.C,R7*%
X166905000Y-102372936D02*
X166905000Y-102827064D01*
X168375000Y-102372936D02*
X168375000Y-102827064D01*
%TO.C,C3*%
D12*
X158178500Y-73291700D02*
X161477960Y-73291700D01*
X158178500Y-82054700D02*
X158178500Y-73291700D01*
X161477960Y-82054700D02*
X158178500Y-82054700D01*
X163642040Y-73291700D02*
X166941500Y-73291700D01*
X166941500Y-73291700D02*
X166941500Y-82054700D01*
X166941500Y-82054700D02*
X163642040Y-82054700D01*
X162636200Y-71805800D02*
G75*
G02*
X162483800Y-71805800I-76200J0D01*
G01*
X162483800Y-71805800D02*
G75*
G02*
X162636200Y-71805800I76200J0D01*
G01*
%TO.C,Q1*%
D11*
X150465000Y-86620000D02*
X150465000Y-70750000D01*
X152550000Y-86620000D02*
X152550000Y-89060000D01*
X153520000Y-86620000D02*
X153520000Y-89060000D01*
X155090000Y-86620000D02*
X155090000Y-89060000D01*
X156060000Y-86620000D02*
X156060000Y-89060000D01*
X157630000Y-86620000D02*
X157630000Y-89060000D01*
X158600000Y-86620000D02*
X158600000Y-89060000D01*
X160685000Y-70750000D02*
X150465000Y-70750000D01*
X160685000Y-86620000D02*
X150465000Y-86620000D01*
X160685000Y-86620000D02*
X160685000Y-70750000D01*
%TO.C,Q2*%
X152370000Y-113290000D02*
X152370000Y-97420000D01*
X154455000Y-113290000D02*
X154455000Y-115730000D01*
X155425000Y-113290000D02*
X155425000Y-115730000D01*
X156995000Y-113290000D02*
X156995000Y-115730000D01*
X157965000Y-113290000D02*
X157965000Y-115730000D01*
X159535000Y-113290000D02*
X159535000Y-115730000D01*
X160505000Y-113290000D02*
X160505000Y-115730000D01*
X162590000Y-97420000D02*
X152370000Y-97420000D01*
X162590000Y-113290000D02*
X152370000Y-113290000D01*
X162590000Y-113290000D02*
X162590000Y-97420000D01*
%TD*%
M02*
