%TF.GenerationSoftware,KiCad,Pcbnew,10.0.6*%
%TF.CreationDate,2026-09-06T12:08:35-04:00*%
%TF.ProjectId,ESP32Board,45535033-3242-46f6-9172-642e6b696361,rev?*%
%TF.SameCoordinates,Original*%
%TF.FileFunction,Soldermask,Bot*%
%TF.FilePolarity,Negative*%
%FSLAX46Y46*%
G04 Gerber Fmt 4.6, Leading zero omitted, Abs format (unit mm)*
G04 Created by KiCad (PCBNEW 10.0.6) date 2026-09-06 12:08:35*
%MOMM*%
%LPD*%
G01*
G04 APERTURE LIST*
G04 Aperture macros list*
%AMRoundRect*
0 Rectangle with rounded corners*
0 $1 Rounding radius*
0 $2 $3 $4 $5 $6 $7 $8 $9 X,Y pos of 4 corners*
0 Add a 4 corners polygon primitive as box body*
4,1,4,$2,$3,$4,$5,$6,$7,$8,$9,$2,$3,0*
0 Add four circle primitives for the rounded corners*
1,1,$1+$1,$2,$3*
1,1,$1+$1,$4,$5*
1,1,$1+$1,$6,$7*
1,1,$1+$1,$8,$9*
0 Add four rect primitives between the rounded corners*
20,1,$1+$1,$2,$3,$4,$5,0*
20,1,$1+$1,$4,$5,$6,$7,0*
20,1,$1+$1,$6,$7,$8,$9,0*
20,1,$1+$1,$8,$9,$2,$3,0*%
G04 Aperture macros list end*
%ADD10C,2.700000*%
%ADD11C,3.000000*%
%ADD12R,1.700000X1.700000*%
%ADD13C,1.700000*%
%ADD14R,3.000000X3.000000*%
%ADD15R,2.000000X1.200000*%
%ADD16O,2.000000X1.200000*%
%ADD17RoundRect,0.250000X0.350000X0.450000X-0.350000X0.450000X-0.350000X-0.450000X0.350000X-0.450000X0*%
%ADD18RoundRect,0.250000X-0.450000X0.350000X-0.450000X-0.350000X0.450000X-0.350000X0.450000X0.350000X0*%
%ADD19R,1.498600X3.454400*%
%ADD20C,3.500000*%
%ADD21R,1.905000X2.000000*%
%ADD22O,1.905000X2.000000*%
G04 APERTURE END LIST*
D10*
%TO.C,F1*%
X182245000Y-103325000D03*
D11*
X182245000Y-114575000D03*
X182245000Y-92075000D03*
%TD*%
D12*
%TO.C,U2*%
X175260000Y-96520000D03*
D13*
X175260000Y-99060000D03*
X175260000Y-101600000D03*
X175260000Y-104140000D03*
%TD*%
D14*
%TO.C,J1*%
X176500000Y-119500000D03*
D11*
X176500000Y-124580000D03*
%TD*%
D15*
%TO.C,U1*%
X144780000Y-73660000D03*
D16*
X144780000Y-76200000D03*
X144780000Y-78740000D03*
X144780000Y-81280000D03*
X144780000Y-83820000D03*
X144780000Y-86360000D03*
X144780000Y-88900000D03*
X144780000Y-91440000D03*
X144780000Y-93980000D03*
X144780000Y-96520000D03*
X144780000Y-99060000D03*
X144780000Y-101600000D03*
X144780000Y-104140000D03*
X144780000Y-106680000D03*
X144780000Y-109220000D03*
X144780000Y-111760000D03*
X144780000Y-114300000D03*
X144780000Y-116840000D03*
X144780000Y-119380000D03*
X170176320Y-119377280D03*
X170176320Y-116837280D03*
X170180000Y-114300000D03*
X170180000Y-111760000D03*
X170180000Y-109220000D03*
X170180000Y-106680000D03*
X170180000Y-104140000D03*
X170180000Y-101600000D03*
X170180000Y-99060000D03*
X170180000Y-96520000D03*
X170180000Y-93980000D03*
X170180000Y-91440000D03*
X170180000Y-88900000D03*
X170180000Y-86360000D03*
X170180000Y-83820000D03*
X170180000Y-81280000D03*
X170180000Y-78740000D03*
X170180000Y-76200000D03*
X170180000Y-73660000D03*
%TD*%
D14*
%TO.C,J2*%
X177800000Y-71755000D03*
D11*
X177800000Y-76835000D03*
X177800000Y-81915000D03*
X177800000Y-86995000D03*
%TD*%
D17*
%TO.C,R8*%
X165100000Y-95885000D03*
X163100000Y-95885000D03*
%TD*%
D18*
%TO.C,R7*%
X167640000Y-101600000D03*
X167640000Y-103600000D03*
%TD*%
D19*
%TO.C,C3*%
X162560000Y-74295000D03*
X162560000Y-81051400D03*
%TD*%
D20*
%TO.C,Q1*%
X155575000Y-73660000D03*
D21*
X158115000Y-90320000D03*
D22*
X155575000Y-90320000D03*
X153035000Y-90320000D03*
%TD*%
D20*
%TO.C,Q2*%
X157480000Y-100330000D03*
D21*
X160020000Y-116990000D03*
D22*
X157480000Y-116990000D03*
X154940000Y-116990000D03*
%TD*%
M02*
