%TF.GenerationSoftware,KiCad,Pcbnew,10.0.6*%
%TF.CreationDate,2026-09-06T12:08:35-04:00*%
%TF.ProjectId,ESP32Board,45535033-3242-46f6-9172-642e6b696361,rev?*%
%TF.SameCoordinates,Original*%
%TF.FileFunction,Copper,L1,Top*%
%TF.FilePolarity,Positive*%
%FSLAX46Y46*%
G04 Gerber Fmt 4.6, Leading zero omitted, Abs format (unit mm)*
G04 Created by KiCad (PCBNEW 10.0.6) date 2026-09-06 12:08:35*
%MOMM*%
%LPD*%
G01*
G04 APERTURE LIST*
G04 Aperture macros list*
%AMRoundRect*
0 Rectangle with rounded corners*
0 $1 Rounding radius*
0 $2 $3 $4 $5 $6 $7 $8 $9 X,Y pos of 4 corners*
0 Add a 4 corners polygon primitive as box body*
4,1,4,$2,$3,$4,$5,$6,$7,$8,$9,$2,$3,0*
0 Add four circle primitives for the rounded corners*
1,1,$1+$1,$2,$3*
1,1,$1+$1,$4,$5*
1,1,$1+$1,$6,$7*
1,1,$1+$1,$8,$9*
0 Add four rect primitives between the rounded corners*
20,1,$1+$1,$2,$3,$4,$5,0*
20,1,$1+$1,$4,$5,$6,$7,0*
20,1,$1+$1,$6,$7,$8,$9,0*
20,1,$1+$1,$8,$9,$2,$3,0*%
G04 Aperture macros list end*
%TA.AperFunction,SMDPad,CuDef*%
%ADD10RoundRect,0.250000X-0.450000X0.350000X-0.450000X-0.350000X0.450000X-0.350000X0.450000X0.350000X0*%
%TD*%
%TA.AperFunction,ComponentPad*%
%ADD11C,3.000000*%
%TD*%
%TA.AperFunction,SMDPad,CuDef*%
%ADD12RoundRect,0.250000X0.350000X0.450000X-0.350000X0.450000X-0.350000X-0.450000X0.350000X-0.450000X0*%
%TD*%
%TA.AperFunction,ComponentPad*%
%ADD13R,1.700000X1.700000*%
%TD*%
%TA.AperFunction,ComponentPad*%
%ADD14C,1.700000*%
%TD*%
%TA.AperFunction,ComponentPad*%
%ADD15R,3.000000X3.000000*%
%TD*%
%TA.AperFunction,SMDPad,CuDef*%
%ADD16RoundRect,0.250000X-0.350000X-0.450000X0.350000X-0.450000X0.350000X0.450000X-0.350000X0.450000X0*%
%TD*%
%TA.AperFunction,SMDPad,CuDef*%
%ADD17RoundRect,0.250000X1.100000X-0.325000X1.100000X0.325000X-1.100000X0.325000X-1.100000X-0.325000X0*%
%TD*%
%TA.AperFunction,ComponentPad*%
%ADD18R,2.000000X1.200000*%
%TD*%
%TA.AperFunction,ComponentPad*%
%ADD19O,2.000000X1.200000*%
%TD*%
%TA.AperFunction,SMDPad,CuDef*%
%ADD20RoundRect,0.250000X1.425000X-0.425000X1.425000X0.425000X-1.425000X0.425000X-1.425000X-0.425000X0*%
%TD*%
%TA.AperFunction,SMDPad,CuDef*%
%ADD21RoundRect,0.250000X0.450000X-0.350000X0.450000X0.350000X-0.450000X0.350000X-0.450000X-0.350000X0*%
%TD*%
%TA.AperFunction,ComponentPad*%
%ADD22R,1.905000X2.000000*%
%TD*%
%TA.AperFunction,ComponentPad*%
%ADD23O,1.905000X2.000000*%
%TD*%
%TA.AperFunction,ViaPad*%
%ADD24C,4.000000*%
%TD*%
%TA.AperFunction,ViaPad*%
%ADD25C,0.800000*%
%TD*%
%TA.AperFunction,ViaPad*%
%ADD26C,3.000000*%
%TD*%
%TA.AperFunction,Conductor*%
%ADD27C,0.250000*%
%TD*%
%TA.AperFunction,Conductor*%
%ADD28C,0.500000*%
%TD*%
G04 APERTURE END LIST*
D10*
%TO.P,R3,1*%
%TO.N,Net-(U1-VDET_2{slash}GPIO35{slash}ADC1_CH7)*%
X156845000Y-85725000D03*
%TO.P,R3,2*%
%TO.N,Net-(D1-A)*%
X156845000Y-87725000D03*
%TD*%
D11*
%TO.P,F1,1*%
%TO.N,Net-(J1-Pin_2)*%
X182245000Y-114575000D03*
%TO.P,F1,2*%
%TO.N,Net-(U2-!SHDN)*%
X182245000Y-92075000D03*
%TD*%
D12*
%TO.P,R2,1*%
%TO.N,Net-(R1-Pad2)*%
X165195000Y-85725000D03*
%TO.P,R2,2*%
%TO.N,Net-(U1-VDET_2{slash}GPIO35{slash}ADC1_CH7)*%
X163195000Y-85725000D03*
%TD*%
D13*
%TO.P,U2,1,!SHDN_1*%
%TO.N,Net-(U2-!SHDN)*%
X175260000Y-96520000D03*
D14*
%TO.P,U2,2,Vin_2*%
X175260000Y-99060000D03*
%TO.P,U2,3,GND_3*%
%TO.N,Net-(D1-A)*%
X175260000Y-101600000D03*
%TO.P,U2,4,Vout_4*%
%TO.N,Net-(U1-5V)*%
X175260000Y-104140000D03*
%TD*%
D15*
%TO.P,J1,1,Pin_1_1*%
%TO.N,Net-(D1-A)*%
X176500000Y-119500000D03*
D11*
%TO.P,J1,2,Pin_2_2*%
%TO.N,Net-(J1-Pin_2)*%
X176500000Y-124580000D03*
%TD*%
D10*
%TO.P,R5,1*%
%TO.N,Net-(U1-ADC2_CH2{slash}\u002AGPIO2)*%
X166370000Y-110490000D03*
%TO.P,R5,2*%
%TO.N,Net-(D1-K)*%
X166370000Y-112490000D03*
%TD*%
D16*
%TO.P,R9,1*%
%TO.N,Net-(D1-A)*%
X155480000Y-113665000D03*
%TO.P,R9,2*%
%TO.N,Net-(Q2-G)*%
X157480000Y-113665000D03*
%TD*%
D17*
%TO.P,C1,1*%
%TO.N,Net-(J1-Pin_2)*%
X170180000Y-124870000D03*
%TO.P,C1,2*%
%TO.N,Net-(D1-A)*%
X170180000Y-121920000D03*
%TD*%
D18*
%TO.P,U1,1,3V3_1*%
%TO.N,unconnected-(U1-3V3-Pad1)*%
X144780000Y-73660000D03*
D19*
%TO.P,U1,2,CHIP_PU_2*%
%TO.N,unconnected-(U1-CHIP_PU-Pad2)*%
X144780000Y-76200000D03*
%TO.P,U1,3,SENSOR_VP/GPIO36/ADC1_CH0_3*%
%TO.N,unconnected-(U1-SENSOR_VP{slash}GPIO36{slash}ADC1_CH0-Pad3)*%
X144780000Y-78740000D03*
%TO.P,U1,4,SENSOR_VN/GPIO39/ADC1_CH3_4*%
%TO.N,unconnected-(U1-SENSOR_VN{slash}GPIO39{slash}ADC1_CH3-Pad4)*%
X144780000Y-81280000D03*
%TO.P,U1,5,VDET_1/GPIO34/ADC1_CH6_5*%
%TO.N,unconnected-(U1-VDET_1{slash}GPIO34{slash}ADC1_CH6-Pad5)*%
X144780000Y-83820000D03*
%TO.P,U1,6,VDET_2/GPIO35/ADC1_CH7_6*%
%TO.N,Net-(U1-VDET_2{slash}GPIO35{slash}ADC1_CH7)*%
X144780000Y-86360000D03*
%TO.P,U1,7,32K_XP/GPIO32/ADC1_CH4_7*%
%TO.N,unconnected-(U1-32K_XP{slash}GPIO32{slash}ADC1_CH4-Pad7)*%
X144780000Y-88900000D03*
%TO.P,U1,8,32K_XN/GPIO33/ADC1_CH5_8*%
%TO.N,unconnected-(U1-32K_XN{slash}GPIO33{slash}ADC1_CH5-Pad8)*%
X144780000Y-91440000D03*
%TO.P,U1,9,DAC_1/ADC2_CH8/GPIO25_9*%
%TO.N,unconnected-(U1-DAC_1{slash}ADC2_CH8{slash}GPIO25-Pad9)*%
X144780000Y-93980000D03*
%TO.P,U1,10,DAC_2/ADC2_CH9/GPIO26_10*%
%TO.N,unconnected-(U1-DAC_2{slash}ADC2_CH9{slash}GPIO26-Pad10)*%
X144780000Y-96520000D03*
%TO.P,U1,11,ADC2_CH7/GPIO27_11*%
%TO.N,Net-(U1-ADC2_CH7{slash}GPIO27)*%
X144780000Y-99060000D03*
%TO.P,U1,12,MTMS/GPIO14/ADC2_CH6_12*%
%TO.N,unconnected-(U1-MTMS{slash}GPIO14{slash}ADC2_CH6-Pad12)*%
X144780000Y-101600000D03*
%TO.P,U1,13,\u002AMTDI/GPIO12/ADC2_CH5_13*%
%TO.N,unconnected-(U1-\u002AMTDI{slash}GPIO12{slash}ADC2_CH5-Pad13)*%
X144780000Y-104140000D03*
%TO.P,U1,14,GND_14*%
%TO.N,Net-(D1-A)*%
X144780000Y-106680000D03*
%TO.P,U1,15,MTCK/GPIO13/ADC2_CH4_15*%
%TO.N,unconnected-(U1-MTCK{slash}GPIO13{slash}ADC2_CH4-Pad15)*%
X144780000Y-109220000D03*
%TO.P,U1,16,SD_DATA2/GPIO9_16*%
%TO.N,unconnected-(U1-SD_DATA2{slash}GPIO9-Pad16)*%
X144780000Y-111760000D03*
%TO.P,U1,17,SD_DATA3/GPIO10_17*%
%TO.N,unconnected-(U1-SD_DATA3{slash}GPIO10-Pad17)*%
X144780000Y-114300000D03*
%TO.P,U1,18,CMD_18*%
%TO.N,unconnected-(U1-CMD-Pad18)*%
X144780000Y-116840000D03*
%TO.P,U1,19,5V_19*%
%TO.N,Net-(U1-5V)*%
X144780000Y-119380000D03*
%TO.P,U1,20,SD_CLK/GPIO6_20*%
%TO.N,unconnected-(U1-SD_CLK{slash}GPIO6-Pad20)*%
X170176320Y-119377280D03*
%TO.P,U1,21,SD_DATA0/GPIO7_21*%
%TO.N,unconnected-(U1-SD_DATA0{slash}GPIO7-Pad21)*%
X170176320Y-116837280D03*
%TO.P,U1,22,SD_DATA1/GPIO8_22*%
%TO.N,unconnected-(U1-SD_DATA1{slash}GPIO8-Pad22)*%
X170180000Y-114300000D03*
%TO.P,U1,23,\u002AMTDO/GPIO15/ADC2_CH3_23*%
%TO.N,unconnected-(U1-\u002AMTDO{slash}GPIO15{slash}ADC2_CH3-Pad23)*%
X170180000Y-111760000D03*
%TO.P,U1,24,ADC2_CH2/\u002AGPIO2_24*%
%TO.N,Net-(U1-ADC2_CH2{slash}\u002AGPIO2)*%
X170180000Y-109220000D03*
%TO.P,U1,25,\u002AGPIO0/BOOT/ADC2_CH1_25*%
%TO.N,unconnected-(U1-\u002AGPIO0{slash}BOOT{slash}ADC2_CH1-Pad25)*%
X170180000Y-106680000D03*
%TO.P,U1,26,ADC2_CH0/GPIO4_26*%
%TO.N,Net-(U1-ADC2_CH0{slash}GPIO4)*%
X170180000Y-104140000D03*
%TO.P,U1,27,GPIO16_27*%
%TO.N,unconnected-(U1-GPIO16-Pad27)*%
X170180000Y-101600000D03*
%TO.P,U1,28,GPIO17_28*%
%TO.N,unconnected-(U1-GPIO17-Pad28)*%
X170180000Y-99060000D03*
%TO.P,U1,29,\u002AGPIO5_29*%
%TO.N,unconnected-(U1-\u002AGPIO5-Pad29)*%
X170180000Y-96520000D03*
%TO.P,U1,30,GPIO18_30*%
%TO.N,unconnected-(U1-GPIO18-Pad30)*%
X170180000Y-93980000D03*
%TO.P,U1,31,GPIO19_31*%
%TO.N,unconnected-(U1-GPIO19-Pad31)*%
X170180000Y-91440000D03*
%TO.P,U1,32,GND_32*%
%TO.N,Net-(D1-A)*%
X170180000Y-88900000D03*
%TO.P,U1,33,GPIO21_33*%
%TO.N,unconnected-(U1-GPIO21-Pad33)*%
X170180000Y-86360000D03*
%TO.P,U1,34,U0RXD/GPIO3_34*%
%TO.N,unconnected-(U1-U0RXD{slash}GPIO3-Pad34)*%
X170180000Y-83820000D03*
%TO.P,U1,35,U0TXD/GPIO1_35*%
%TO.N,unconnected-(U1-U0TXD{slash}GPIO1-Pad35)*%
X170180000Y-81280000D03*
%TO.P,U1,36,GPIO22_36*%
%TO.N,unconnected-(U1-GPIO22-Pad36)*%
X170180000Y-78740000D03*
%TO.P,U1,37,GPIO23_37*%
%TO.N,unconnected-(U1-GPIO23-Pad37)*%
X170180000Y-76200000D03*
%TO.P,U1,38,GND_38*%
%TO.N,Net-(D1-A)*%
X170180000Y-73660000D03*
%TD*%
D16*
%TO.P,R1,1*%
%TO.N,Net-(U2-!SHDN)*%
X163195000Y-90805000D03*
%TO.P,R1,2*%
%TO.N,Net-(R1-Pad2)*%
X165195000Y-90805000D03*
%TD*%
D20*
%TO.P,D1,1,K_1*%
%TO.N,Net-(D1-K)*%
X175260000Y-115570000D03*
%TO.P,D1,2,A_2*%
%TO.N,Net-(D1-A)*%
X175260000Y-109770000D03*
%TD*%
D21*
%TO.P,R4,1*%
%TO.N,Net-(Q2-G)*%
X147955000Y-118840000D03*
%TO.P,R4,2*%
%TO.N,Net-(U1-ADC2_CH7{slash}GPIO27)*%
X147955000Y-116840000D03*
%TD*%
D17*
%TO.P,Cbyp1,1*%
%TO.N,Net-(J1-Pin_2)*%
X166370000Y-124870000D03*
%TO.P,Cbyp1,2*%
%TO.N,Net-(D1-A)*%
X166370000Y-121920000D03*
%TD*%
D16*
%TO.P,R6,1*%
%TO.N,Net-(Q1-D)*%
X163100000Y-93345000D03*
%TO.P,R6,2*%
%TO.N,Net-(U2-!SHDN)*%
X165100000Y-93345000D03*
%TD*%
D15*
%TO.P,J2,1,Pin_1_1*%
%TO.N,Net-(D1-A)*%
X177800000Y-71755000D03*
D11*
%TO.P,J2,2,Pin_2_2*%
%TO.N,Net-(J2-Pin_2)*%
X177800000Y-76835000D03*
%TO.P,J2,3,Pin_3_3*%
%TO.N,Net-(J2-Pin_3)*%
X177800000Y-81915000D03*
%TO.P,J2,4,Pin_4_4*%
%TO.N,Net-(D1-A)*%
X177800000Y-86995000D03*
%TD*%
D22*
%TO.P,Q1,1,G_1*%
%TO.N,Net-(Q1-G)*%
X158115000Y-90320000D03*
D23*
%TO.P,Q1,2,D_2*%
%TO.N,Net-(Q1-D)*%
X155575000Y-90320000D03*
%TO.P,Q1,3,S_3*%
%TO.N,Net-(J2-Pin_2)*%
X153035000Y-90320000D03*
%TD*%
D22*
%TO.P,Q2,1,G_1*%
%TO.N,Net-(Q2-G)*%
X160020000Y-116990000D03*
D23*
%TO.P,Q2,2,D_2*%
%TO.N,Net-(Q1-G)*%
X157480000Y-116990000D03*
%TO.P,Q2,3,S_3*%
%TO.N,Net-(D1-A)*%
X154940000Y-116990000D03*
%TD*%
D24*
%TO.N,*%
X185420000Y-69850000D03*
X144780000Y-69850000D03*
X144780000Y-124850000D03*
X185420000Y-124850000D03*
D25*
%TO.N,Net-(D1-A)*%
X151765000Y-106680000D03*
X177800000Y-101600000D03*
X173355000Y-88900000D03*
X162560000Y-88265000D03*
D26*
X177000000Y-110000000D03*
D25*
X151765000Y-113030000D03*
X173355000Y-101600000D03*
%TO.N,Net-(U2-!SHDN)*%
X175260000Y-92710000D03*
%TO.N,Net-(R1-Pad2)*%
X165100000Y-86995000D03*
X165050659Y-89079500D03*
%TO.N,Net-(U1-5V)*%
X163830000Y-121285000D03*
D26*
%TO.N,Net-(D1-K)*%
X176500000Y-115000000D03*
D25*
%TO.N,Net-(U1-ADC2_CH7{slash}GPIO27)*%
X147955000Y-114300000D03*
%TO.N,Net-(Q1-D)*%
X155575000Y-93345000D03*
%TO.N,Net-(J2-Pin_2)*%
X173990000Y-71755000D03*
X162560000Y-71755000D03*
X153035000Y-70485000D03*
X162560000Y-70485000D03*
%TO.N,Net-(J2-Pin_3)*%
X167640000Y-82550000D03*
%TO.N,Net-(Q1-G)*%
X165065000Y-106500000D03*
X158115000Y-94615000D03*
X157500000Y-106500000D03*
X165065000Y-94650000D03*
%TD*%
%TO.N,Net-(U1-VDET_2{slash}GPIO35{slash}ADC1_CH7)*%
D27*
X144780000Y-86360000D02*
X145415000Y-85725000D01*
X145415000Y-85725000D02*
X163195000Y-85725000D01*
%TO.N,Net-(D1-A)*%
X177000000Y-110000000D02*
X176770000Y-109770000D01*
X177000000Y-110000000D02*
X177945000Y-110000000D01*
X154940000Y-114205000D02*
X154940000Y-116990000D01*
X170180000Y-88900000D02*
X173355000Y-88900000D01*
X155480000Y-113665000D02*
X154940000Y-114205000D01*
X175895000Y-88900000D02*
X177800000Y-86995000D01*
X144780000Y-106680000D02*
X151765000Y-106680000D01*
X173355000Y-88900000D02*
X175895000Y-88900000D01*
X174080000Y-121920000D02*
X170180000Y-121920000D01*
X166370000Y-121920000D02*
X170180000Y-121920000D01*
X170180000Y-73660000D02*
X175895000Y-73660000D01*
X147320000Y-88265000D02*
X169545000Y-88265000D01*
X177945000Y-110000000D02*
X179500000Y-111555000D01*
X173355000Y-101600000D02*
X175260000Y-101600000D01*
X151765000Y-113030000D02*
X154845000Y-113030000D01*
X154845000Y-113030000D02*
X155480000Y-113665000D01*
X179500000Y-116500000D02*
X174080000Y-121920000D01*
X169545000Y-88265000D02*
X170180000Y-88900000D01*
X147320000Y-106680000D02*
X147320000Y-88265000D01*
X175895000Y-73660000D02*
X177800000Y-71755000D01*
X177800000Y-101600000D02*
X175260000Y-101600000D01*
X179500000Y-111555000D02*
X179500000Y-116500000D01*
X176770000Y-109770000D02*
X175260000Y-109770000D01*
%TO.N,Net-(J1-Pin_2)*%
D28*
X170470000Y-124580000D02*
X176500000Y-124580000D01*
X170180000Y-124870000D02*
X170470000Y-124580000D01*
X166370000Y-124870000D02*
X170180000Y-124870000D01*
%TO.N,Net-(U2-!SHDN)*%
D27*
X175260000Y-92710000D02*
X175895000Y-92075000D01*
X175260000Y-96520000D02*
X175260000Y-99060000D01*
X175895000Y-92075000D02*
X182245000Y-92075000D01*
X163195000Y-91440000D02*
X165100000Y-93345000D01*
X175260000Y-92710000D02*
X175260000Y-96520000D01*
X163195000Y-90805000D02*
X163195000Y-91440000D01*
X175260000Y-92710000D02*
X165735000Y-92710000D01*
X165735000Y-92710000D02*
X165100000Y-93345000D01*
%TO.N,Net-(R1-Pad2)*%
X165000000Y-89223841D02*
X165000000Y-90610000D01*
X165195000Y-86900000D02*
X165100000Y-86995000D01*
X165000000Y-90610000D02*
X165195000Y-90805000D01*
X165195000Y-85725000D02*
X165195000Y-86900000D01*
X165195000Y-89223841D02*
X165050659Y-89079500D01*
X165195000Y-86995000D02*
X165100000Y-86995000D01*
%TO.N,Net-(U1-5V)*%
X144780000Y-119380000D02*
X146685000Y-121285000D01*
X146685000Y-121285000D02*
X163830000Y-121285000D01*
%TO.N,Net-(U1-ADC2_CH2{slash}\u002AGPIO2)*%
X170180000Y-109220000D02*
X167640000Y-109220000D01*
X167640000Y-109220000D02*
X166370000Y-110490000D01*
%TO.N,Net-(D1-K)*%
X172805000Y-113115000D02*
X175260000Y-115570000D01*
X176500000Y-115000000D02*
X175830000Y-115000000D01*
X175830000Y-115000000D02*
X175260000Y-115570000D01*
X166995000Y-113115000D02*
X172805000Y-113115000D01*
X166370000Y-112490000D02*
X166995000Y-113115000D01*
%TO.N,Net-(Q2-G)*%
X159925000Y-118840000D02*
X160020000Y-118745000D01*
X158115000Y-113665000D02*
X157480000Y-113665000D01*
X157405000Y-114375000D02*
X158115000Y-113665000D01*
X147955000Y-118840000D02*
X159925000Y-118840000D01*
X160020000Y-118745000D02*
X160020000Y-116990000D01*
X160020000Y-116990000D02*
X157405000Y-114375000D01*
%TO.N,Net-(U1-ADC2_CH7{slash}GPIO27)*%
X147955000Y-114300000D02*
X147955000Y-116205000D01*
%TO.N,Net-(Q1-D)*%
X163100000Y-93345000D02*
X155575000Y-93345000D01*
%TO.N,Net-(J2-Pin_2)*%
D28*
X153035000Y-70485000D02*
X162560000Y-70485000D01*
X162560000Y-71755000D02*
X173990000Y-71755000D01*
%TO.N,Net-(J2-Pin_3)*%
D27*
X177165000Y-82550000D02*
X167640000Y-82550000D01*
X177800000Y-81915000D02*
X177165000Y-82550000D01*
%TO.N,Net-(Q1-G)*%
X165065000Y-94650000D02*
X165030000Y-94615000D01*
X157500000Y-106500000D02*
X165065000Y-106500000D01*
X165030000Y-94615000D02*
X158115000Y-94615000D01*
%TD*%
M02*
